# xmcd
#
# Track frame offsets: 
#        150
#        13607
#        24532
#        36389
#        51014
#        64499
#        79025
#        92200
#        107128
#        120282
#        130806
#        146035
#        161889
#        173512
#        183953
#        192714
#        201943
#        214426
#        226883
#        239743
#        253837
#        265500
#        274425
#        287082
#        300996
#        314903
#
# Disc length: 4404 seconds
#
# Revision: 0
# Processed by: cddbd v1.5.2PL0 Copyright (c) Steve Scherf et al.
# Submitted via: ExactAudioCopy v1.0b1
#
DISCID=8e11321a
DTITLE=Various Artist - Westbound - Detroit Northern Soul
DYEAR=2010
DGENRE=R&B
TTITLE0=Denise LaSalle - Do Me Right
TTITLE1=The Unique Blend - Gonna Spread The News
TTITLE2=The Detroit Emeralds - Holding On
TTITLE3=Denise and Abe - Ain't That Lovin'
TTITLE4=Joe Matthews - What Every Little Girl Needs
TTITLE5=Eddie Hill - I am So Thankful
TTITLE6=Damon Shawn - Feel The Need
TTITLE7=Caesar Frazier - Till Another Day
TTITLE8=Melvin Sparks and Jimmy Scott - I've Got To Have You
TTITLE9=The Superlatives - Don't Let True Love Die
TTITLE10=The Houston Outlaws - Ain't No Telling
TTITLE11=The Fantastic Four - I Got To Have Your Love
TTITLE12=The Magictones - Happy Days
TTITLE13=The Superlatives - Lonely In A Crowd
TTITLE14=Funkadelic - Can't Shake It Loose
TTITLE15=The New Holidays - My Baby Ain't No Plaything
TTITLE16=The Unique Blend - Yes I'm In Love
TTITLE17=The Magictones - I'm Slowly Moulding
TTITLE18=Emanuel Laskey - Never My Love
TTITLE19=Bob and Harold - I Can't See Myself Doing Without You
TTITLE20=The Magictones - Till You Decide To Come Home
TTITLE21=Jimmy Scott - What Am I Gonna Do (About You Baby)
TTITLE22=Joe Matthews - Third World
TTITLE23=Damon Shawn - Love Love Love
TTITLE24=The New Holidays - Maybe So, Maybe No
TTITLE25=The Houston Outlaws - It's No Fun Being Alone
EXTD=
EXTT0=
EXTT1=
EXTT2=
EXTT3=
EXTT4=
EXTT5=
EXTT6=
EXTT7=
EXTT8=
EXTT9=
EXTT10=
EXTT11=
EXTT12=
EXTT13=
EXTT14=
EXTT15=
EXTT16=
EXTT17=
EXTT18=
EXTT19=
EXTT20=
EXTT21=
EXTT22=
EXTT23=
EXTT24=
EXTT25=
PLAYORDER=
